<?xml version="1.0"?>
<svg width="127" height="129" xmlns="http://www.w3.org/2000/svg" xmlns:svg="http://www.w3.org/2000/svg">
 <g class="layer">
  <title>Layer 1</title>
  <rect fill="#F8F8F8" height="129" id="svg_1" rx="8" width="127"/>
  <rect fill="#e5e5e5" height="128" id="svg_2" rx="7.5" stroke="black" stroke-dasharray="2 2" stroke-opacity="0.2" transform="matrix(1 0 0 1 0 0)" width="126" x="0.5" y="0.5"/>
  <path d="m79.11,49.77c0,0 0.84,-10.51 -9.47,-11.71c-8.84,-0.84 -11.53,6.83 -11.53,6.83c0,0 -2.66,-2.39 -6.27,-0.44c-3.23,1.86 -2.66,5.27 -2.66,5.27c0,0 -7.18,1.3 -7.18,8.13c0.16,6.82 7.79,6.89 7.79,6.89l12.04,0l0,-7.21l-3.86,0l6.43,-6.01l6.44,6.01l-3.86,0l0,7.21l10.9,0c0,0 7.1,0.01 8.1,-6.48c0.47,-7.1 -6.87,-8.49 -6.87,-8.49z" fill="#7f7f7f" id="svg_3"/>
  <text fill="#7f7f7f" font-family="Sans-serif" font-size="17" id="svg_5" stroke-width="0" text-anchor="middle" transform="matrix(1 0 0 1 0 0)" x="64.5" xml:space="preserve" y="94.5">Завантажити</text>
 </g>
</svg>